<?xml version="1.0" encoding="utf-8"?>
<!-- Generator: Adobe Illustrator 21.1.0, SVG Export Plug-In . SVG Version: 6.00 Build 0)  -->
<svg version="1.1" id="Layer_1" xmlns="http://www.w3.org/2000/svg" xmlns:xlink="http://www.w3.org/1999/xlink" x="0px" y="0px"
	 viewBox="0 0 1400 980" style="enable-background:new 0 0 1400 980;" xml:space="preserve">
<style type="text/css">
	.st0{fill:#000E17;}
	.st1{fill:#30CFEF;}
	.st2{fill:#069BE2;}
	.st3{fill:#C2F0F5;}
</style>
<rect class="st0" width="1400" height="980"/>
<g>
	<path class="st1" d="M216.3,207.8c-66.8,0-120.9,54.1-120.9,120.9s54.1,120.9,120.9,120.9s120.9-54.1,120.9-120.9
		S283.1,207.8,216.3,207.8z M216.3,443.7c-63.5,0-115-51.5-115-115s51.5-115,115-115s115,51.5,115,115S279.8,443.7,216.3,443.7z"/>
	<path class="st2" d="M349.4,295.2h-13c3,10.7,4.6,21.9,4.6,33.5c0,11.6-1.6,22.9-4.6,33.5h13c2.7-10.7,4.1-22,4.1-33.5
		C353.5,317.1,352.1,305.9,349.4,295.2z M83.2,295.2c-2.7,10.7-4.1,22-4.1,33.5c0,11.6,1.4,22.8,4.1,33.5h13
		c-3-10.7-4.6-21.9-4.6-33.5c0-11.6,1.6-22.9,4.6-33.5H83.2z"/>
	<path class="st2" d="M216.3,305.5c-12.8,0-23.2,10.4-23.2,23.2c0,12.8,10.4,23.2,23.2,23.2s23.2-10.4,23.2-23.2
		C239.5,315.9,229.1,305.5,216.3,305.5z M216.3,347.6c-10.5,0-18.9-8.5-18.9-18.9c0-10.5,8.5-18.9,18.9-18.9
		c10.5,0,18.9,8.5,18.9,18.9C235.3,339.2,226.8,347.6,216.3,347.6z"/>
	<path class="st3" d="M216.3,220.9c-59.5,0-107.8,48.2-107.8,107.8c0,59.5,48.2,107.8,107.8,107.8s107.8-48.2,107.8-107.8
		C324.1,269.2,275.8,220.9,216.3,220.9z M216.3,422.8c-52,0-94.1-42.1-94.1-94.1s42.1-94.1,94.1-94.1s94.1,42.1,94.1,94.1
		S268.3,422.8,216.3,422.8z"/>
	<path class="st2" d="M295.3,328.7c0,20-7.5,38.3-19.8,52.3l-7.1-7.1c10.5-12.1,16.9-27.9,16.9-45.2c0-30-19.1-55.5-45.9-65l2.6-9.7
		C273,264.7,295.3,294.1,295.3,328.7z"/>
	<g>
		<rect x="214.9" y="274.9" class="st2" width="2.8" height="17.4"/>
		<rect x="214.9" y="365.1" class="st2" width="2.8" height="17.4"/>
	</g>
	<g>
		
			<rect x="169.8" y="320" transform="matrix(6.123234e-17 -1 1 6.123234e-17 -157.4685 499.9495)" class="st2" width="2.8" height="17.4"/>
		
			<rect x="260" y="320" transform="matrix(6.123234e-17 -1 1 6.123234e-17 -67.2924 590.1256)" class="st2" width="2.8" height="17.4"/>
	</g>
	<path class="st1" d="M160.2,295.9c2.6-4.4,5.7-8.5,9.2-12.1l-12.9-12.9c-4.6,4.8-8.7,10.1-12.1,15.9L160.2,295.9z"/>
	<path class="st1" d="M153.4,345.2c-1.3-4.8-2-9.8-2.1-14.9H133c0.1,6.8,1.1,13.4,2.7,19.7L153.4,345.2z"/>
	<path class="st1" d="M184.4,272.1c4.4-2.5,9.1-4.5,14.1-5.9l-4.7-17.7c-6.5,1.8-12.7,4.5-18.5,7.7L184.4,272.1z"/>
	<path class="st1" d="M151.3,328.4c0-5.2,0.7-10.2,1.8-15l-17.7-4.7c-1.6,6.3-2.4,13-2.4,19.8H151.3z"/>
	<path class="st1" d="M153.6,311.6c1.4-4.9,3.3-9.7,5.7-14.1l-15.9-9.2c-3.2,5.8-5.7,12-7.5,18.5L153.6,311.6z"/>
	<path class="st1" d="M200.2,265.7c4.9-1.2,9.9-1.9,15.1-2v-18.3c-6.9,0.1-13.5,1-19.9,2.6L200.2,265.7z"/>
	<path class="st1" d="M170.7,282.4c3.6-3.6,7.7-6.7,12-9.4l-9.2-15.9c-5.8,3.4-11.1,7.6-15.8,12.3L170.7,282.4z"/>
	<path class="st1" d="M217.3,263.7c5.2,0.1,10.3,0.8,15.1,2l4.7-17.7c-6.4-1.6-13-2.5-19.9-2.6V263.7z"/>
	<path class="st1" d="M159.8,360.9c-2.5-4.3-4.5-9-5.9-13.9l-17.7,4.7c1.9,6.4,4.5,12.6,7.7,18.3L159.8,360.9z"/>
	<path class="st1" d="M261.3,375.7c-3.6,3.5-7.6,6.5-11.9,9.1l9.2,15.9c5.7-3.4,11-7.4,15.7-12L261.3,375.7z"/>
	<path class="st1" d="M247.8,385.6c-4.3,2.4-9,4.3-13.8,5.7l4.7,17.7c6.4-1.8,12.6-4.3,18.3-7.5L247.8,385.6z"/>
	<path class="st1" d="M170,374.3c-3.5-3.6-6.6-7.5-9.2-11.8l-15.9,9.2c3.4,5.7,7.5,10.9,12.2,15.6L170,374.3z"/>
	<path class="st1" d="M232.1,391.8c-4.8,1.2-9.7,1.8-14.8,1.9V412c6.7-0.1,13.3-0.9,19.6-2.5L232.1,391.8z"/>
	<path class="st1" d="M183.3,384.7c-4.3-2.6-8.3-5.6-11.9-9.1l-12.9,12.9c4.7,4.6,10,8.6,15.7,12L183.3,384.7z"/>
	<path class="st1" d="M198.7,391.3c-4.9-1.4-9.5-3.3-13.8-5.7l-9.2,15.9c5.7,3.2,11.8,5.7,18.3,7.5L198.7,391.3z"/>
	<path class="st1" d="M215.4,393.7c-5.1-0.1-10.1-0.7-14.8-1.9l-4.7,17.7c6.3,1.6,12.8,2.5,19.6,2.5V393.7z"/>
</g>
<g>
	<g>
		<g>
			<g>
				
					<rect x="535.2" y="198.3" transform="matrix(0.9981 -6.104854e-02 6.104854e-02 0.9981 -11.5453 33.1218)" class="st1" width="2.1" height="14.3"/>
			</g>
		</g>
		<g>
			<g>
				
					<rect x="527.7" y="199" transform="matrix(0.9925 -0.1219 0.1219 0.9925 -21.1866 65.9792)" class="st1" width="2.1" height="14.3"/>
			</g>
		</g>
		<g>
			<g>
				
					<rect x="514" y="201.2" transform="matrix(0.9703 -0.2419 0.2419 0.9703 -35.1007 130.7828)" class="st1" width="2.1" height="14.3"/>
			</g>
		</g>
		<g>
			<g>
				
					<rect x="506.7" y="203.2" transform="matrix(0.9537 -0.3007 0.3007 0.9537 -39.7574 162.4297)" class="st1" width="2.1" height="14.3"/>
			</g>
		</g>
		<g>
			<g>
				
					<rect x="493.7" y="207.8" transform="matrix(0.91 -0.4147 0.4147 0.91 -44.5755 224.5385)" class="st1" width="2.1" height="14.3"/>
			</g>
		</g>
		<g>
			<g>
				
					<rect x="487" y="211.1" transform="matrix(0.8829 -0.4695 0.4695 0.8829 -45.3331 254.6714)" class="st1" width="2.1" height="14.3"/>
			</g>
		</g>
		<g>
			<g>
				
					<rect x="474.5" y="217.8" transform="matrix(0.8526 -0.5225 0.5225 0.8526 -47.4583 281.633)" class="st1" width="2.1" height="14.3"/>
			</g>
		</g>
		<g>
			<g>
				
					<rect x="468.2" y="221.9" transform="matrix(0.8192 -0.5736 0.5736 0.8192 -46.5246 310.5959)" class="st1" width="2.1" height="14.3"/>
			</g>
		</g>
		<g>
			<g>
				
					<rect x="457.7" y="231.2" transform="matrix(0.7431 -0.6691 0.6691 0.7431 -41.6366 368.1925)" class="st1" width="2.1" height="14.3"/>
			</g>
		</g>
		<g>
			<g>
				
					<rect x="452.3" y="236.4" transform="matrix(0.7009 -0.7133 0.7133 0.7009 -38.1088 396.1803)" class="st1" width="2.1" height="14.3"/>
			</g>
		</g>
		<g>
			<g>
				
					<rect x="443.7" y="246.9" transform="matrix(0.6088 -0.7934 0.7934 0.6088 -27.569 452.2783)" class="st1" width="2.1" height="14.3"/>
			</g>
		</g>
		<g>
			<g>
				
					<rect x="439.3" y="253" transform="matrix(0.5592 -0.829 0.829 0.5592 -21.5849 479.7928)" class="st1" width="2.1" height="14.3"/>
			</g>
		</g>
		<g>
			<g>
				
					<rect x="432.5" y="265.3" transform="matrix(0.454 -0.891 0.891 0.454 -6.0062 535.029)" class="st1" width="2.1" height="14.3"/>
			</g>
		</g>
		<g>
			<g>
				
					<rect x="429.3" y="272.1" transform="matrix(0.3987 -0.9171 0.9171 0.3987 2.6802 562.5204)" class="st1" width="2.1" height="14.3"/>
			</g>
		</g>
		<g>
			<g>
				
					<rect x="424" y="285.6" transform="matrix(0.284 -0.9588 0.9588 0.284 23.5826 617.168)" class="st1" width="2.1" height="14.3"/>
			</g>
		</g>
		<g>
			<g>
				
					<rect x="422.5" y="291.7" transform="matrix(0.225 -0.9744 0.9744 0.225 37.0736 644.3889)" class="st1" width="2.1" height="14.3"/>
			</g>
		</g>
		<g>
			<g>
				<polygon class="st1" points="655.8,302.4 656.2,304.4 670.3,301.6 669.9,299.5 662.5,301 				"/>
			</g>
		</g>
		<g>
			<g>
				<polygon class="st1" points="654.1,295.5 654.7,297.5 668.5,293.8 668,291.8 660.7,293.7 				"/>
			</g>
		</g>
		<g>
			<g>
				
					<rect x="656.3" y="275" transform="matrix(-0.3746 -0.9272 0.9272 -0.3746 642.0103 997.4185)" class="st1" width="2.1" height="14.3"/>
			</g>
		</g>
		<g>
			<g>
				
					<rect x="653.3" y="268.1" transform="matrix(-0.4305 -0.9026 0.9026 -0.4305 687.5828 984.444)" class="st1" width="2.1" height="14.3"/>
			</g>
		</g>
		<g>
			<g>
				
					<rect x="646" y="255" transform="matrix(-0.5373 -0.8434 0.8434 -0.5373 773.6423 948.7516)" class="st1" width="2.1" height="14.3"/>
			</g>
		</g>
		<g>
			<g>
				
					<rect x="641.8" y="248.8" transform="matrix(-0.5878 -0.809 0.809 -0.5878 813.6307 926.4513)" class="st1" width="2.1" height="14.3"/>
			</g>
		</g>
		<g>
			<g>
				
					<rect x="632.2" y="237.2" transform="matrix(-0.682 -0.7314 0.7314 -0.682 886.4725 874.1368)" class="st1" width="2.1" height="14.3"/>
			</g>
		</g>
		<g>
			<g>
				
					<rect x="627.8" y="232.5" transform="matrix(-0.7254 -0.6884 0.6884 -0.7254 920.0004 846.303)" class="st1" width="2.1" height="14.3"/>
			</g>
		</g>
		<g>
			<g>
				
					<rect x="615.4" y="222.2" transform="matrix(-0.8039 -0.5948 0.5948 -0.8039 975.6062 780.3888)" class="st1" width="2.1" height="14.3"/>
			</g>
		</g>
		<g>
			<g>
				
					<rect x="610.3" y="218.7" transform="matrix(-0.8387 -0.5446 0.5446 -0.8387 1001.0164 748.2952)" class="st1" width="2.1" height="14.3"/>
			</g>
		</g>
		<g>
			<g>
				
					<rect x="597.8" y="211.7" transform="matrix(-0.8704 -0.4924 0.4924 -0.8704 1012.2806 704.2768)" class="st1" width="2.1" height="14.3"/>
			</g>
		</g>
		<g>
			<g>
				
					<rect x="591.2" y="208.4" transform="matrix(-0.8988 -0.4384 0.4384 -0.8988 1030.121 668.8986)" class="st1" width="2.1" height="14.3"/>
			</g>
		</g>
		<g>
			<g>
				
					<rect x="577.7" y="203.6" transform="matrix(-0.9455 -0.3256 0.3256 -0.9455 1057.4177 598.402)" class="st1" width="2.1" height="14.3"/>
			</g>
		</g>
		<g>
			<g>
				
					<rect x="570.3" y="201.5" transform="matrix(-0.9636 -0.2672 0.2672 -0.9636 1066.1493 562.3918)" class="st1" width="2.1" height="14.3"/>
			</g>
		</g>
		<g>
			<g>
				
					<rect x="556.8" y="199.2" transform="matrix(-0.989 -0.1478 0.1478 -0.989 1079.0322 492.9628)" class="st1" width="2.1" height="14.3"/>
			</g>
		</g>
		<g>
			<g>
				
					<rect x="548.8" y="198.4" transform="matrix(-0.9962 -8.715574e-02 8.715574e-02 -0.9962 1079.6245 458.3033)" class="st1" width="2.1" height="14.3"/>
			</g>
		</g>
	</g>
	<g>
		<rect x="540.9" y="194.6" class="st3" width="4.7" height="17.6"/>
	</g>
	<g>
		
			<rect x="519.1" y="196.2" transform="matrix(0.9848 -0.1736 0.1736 0.9848 -27.6688 93.6601)" class="st3" width="4.7" height="17.6"/>
	</g>
	<g>
		
			<rect x="497.9" y="201.5" transform="matrix(0.9397 -0.342 0.342 0.9397 -41.7427 183.7685)" class="st3" width="4.7" height="17.6"/>
	</g>
	<g>
		<rect x="477.9" y="210.3" transform="matrix(0.866 -0.5 0.5 0.866 -45.2302 269.4933)" class="st3" width="4.7" height="17.6"/>
	</g>
	<g>
		
			<rect x="459.8" y="222.6" transform="matrix(0.766 -0.6428 0.6428 0.766 -40.602 351.1959)" class="st3" width="4.7" height="17.6"/>
	</g>
	<g>
		
			<rect x="444.1" y="237.8" transform="matrix(0.6428 -0.766 0.766 0.6428 -29.4058 430.0623)" class="st3" width="4.7" height="17.6"/>
	</g>
	<g>
		<rect x="431.2" y="255.4" transform="matrix(0.5 -0.866 0.866 0.5 -12.0492 507.625)" class="st3" width="4.7" height="17.6"/>
	</g>
	<g>
		
			<rect x="421.7" y="275.1" transform="matrix(0.342 -0.9397 0.9397 0.342 12.2207 585.2418)" class="st3" width="4.7" height="17.6"/>
	</g>
	<g>
		
			<rect x="415.6" y="296.1" transform="matrix(0.1736 -0.9848 0.9848 0.1736 45.1401 663.6072)" class="st3" width="4.7" height="17.6"/>
	</g>
	<g>
		
			<rect x="662.6" y="300.3" transform="matrix(0.1736 0.9848 -0.9848 0.1736 853.9056 -399.3608)" class="st3" width="4.7" height="17.6"/>
	</g>
	<g>
		
			<rect x="657.3" y="279.1" transform="matrix(0.342 0.9397 -0.9397 0.342 704.5946 -430.3918)" class="st3" width="4.7" height="17.6"/>
	</g>
	<g>
		<rect x="648.4" y="259.2" transform="matrix(0.5 0.866 -0.866 0.5 557.438 -429.5651)" class="st3" width="4.7" height="17.6"/>
	</g>
	<g>
		
			<rect x="636.2" y="241.1" transform="matrix(0.6428 0.766 -0.766 0.6428 419.4839 -399.872)" class="st3" width="4.7" height="17.6"/>
	</g>
	<g>
		
			<rect x="621" y="225.3" transform="matrix(0.766 0.6428 -0.6428 0.766 296.3309 -345.8834)" class="st3" width="4.7" height="17.6"/>
	</g>
	<g>
		<rect x="603.3" y="212.5" transform="matrix(0.866 0.5 -0.5 0.866 191.7885 -273.1682)" class="st3" width="4.7" height="17.6"/>
	</g>
	<g>
		
			<rect x="583.6" y="202.9" transform="matrix(0.9397 0.342 -0.342 0.9397 107.7528 -187.6506)" class="st3" width="4.7" height="17.6"/>
	</g>
	<g>
		
			<rect x="562.6" y="196.9" transform="matrix(0.9848 0.1736 -0.1736 0.9848 44.3035 -94.9817)" class="st3" width="4.7" height="17.6"/>
	</g>
	<path class="st2" d="M542.1,225.3c-57.1,0-103.4,46.3-103.4,103.4S485,432.1,542.1,432.1s103.4-46.3,103.4-103.4
		S599.2,225.3,542.1,225.3z M542.1,424.6c-52.9,0-95.9-42.9-95.9-95.9s42.9-95.9,95.9-95.9s95.9,42.9,95.9,95.9
		S595.1,424.6,542.1,424.6z"/>
	<path class="st3" d="M529.6,386.3c-20.3-4.4-36.8-19.3-43.3-38.8h-26c7.6,33.3,35.1,59.1,69.3,64.2V386.3z"/>
	<path class="st2" d="M620.3,324.7h19.2c-2-50-41.7-90.3-91.4-93.3v19.3C587.3,253.6,618.4,285.3,620.3,324.7z"/>
	<path class="st2" d="M542.1,291.7c-20.4,0-37,16.6-37,37c0,20.4,16.6,37,37,37c20.4,0,37-16.6,37-37
		C579.1,308.3,562.5,291.7,542.1,291.7z M542.1,361.6c-18.2,0-32.9-14.7-32.9-32.9c0-18.2,14.7-32.9,32.9-32.9s32.9,14.7,32.9,32.9
		C575.1,346.9,560.3,361.6,542.1,361.6z"/>
	<circle class="st2" cx="542.1" cy="328.7" r="14.8"/>
	<path class="st1" d="M429.7,313.4c7.5-55.4,54.9-98.2,112.4-98.2s104.9,42.7,112.4,98.2h5c-7.5-58.2-57.2-103.1-117.4-103.1
		s-109.9,45-117.4,103.1H429.7z"/>
	<g>
		<path class="st1" d="M536.2,443.2L536.2,443.2c-57.5-3-104.4-48.6-108.4-106.4h0v0h-8.4v1.7h6.1c4.8,57.9,51.5,103.3,109,107v6
			h1.7v-5.9c0,0,0,0,0,0L536.2,443.2C536.2,443.2,536.2,443.2,536.2,443.2L536.2,443.2z"/>
		<path class="st1" d="M664.9,336.8h-8.4v0.1c-4.1,57.8-50.9,103.3-108.3,106.3h-0.1v8.4h1.7v-6c57.5-3.7,104.2-49.2,109-107h6.1
			V336.8z"/>
	</g>
	<g>
		<rect x="453.2" y="321" class="st2" width="5.2" height="13.3"/>
		<rect x="465.1" y="321" class="st2" width="5.2" height="13.3"/>
		<rect x="477" y="321" class="st2" width="5.2" height="13.3"/>
		<rect x="488.9" y="321" class="st2" width="5.2" height="13.3"/>
	</g>
</g>
<g>
	<path class="st2" d="M212.9,546.6c-61,0-110.4,49.4-110.4,110.4s49.4,110.4,110.4,110.4S323.3,718,323.3,657
		S273.8,546.6,212.9,546.6z M212.9,756.5c-55,0-99.5-44.6-99.5-99.5c0-55,44.6-99.5,99.5-99.5s99.5,44.6,99.5,99.5
		C312.4,712,267.8,756.5,212.9,756.5z"/>
	<path class="st2" d="M212.9,581.2c-41.9,0-75.8,33.9-75.8,75.8c0,41.9,33.9,75.8,75.8,75.8s75.8-33.9,75.8-75.8
		C288.7,615.1,254.7,581.2,212.9,581.2z M212.9,725.3c-37.7,0-68.3-30.6-68.3-68.3c0-37.7,30.6-68.3,68.3-68.3s68.3,30.6,68.3,68.3
		C281.2,694.8,250.6,725.3,212.9,725.3z"/>
	<path class="st1" d="M247.3,665.5c-3.8,15.5-17.8,27.1-34.5,27.1c-19.6,0-35.5-15.9-35.5-35.5c0-17.9,13.3-32.7,30.5-35.2v-22.3
		c-29.5,2.5-52.6,27.3-52.6,57.4c0,31.8,25.8,57.6,57.6,57.6c29,0,52.9-21.4,57-49.2H247.3z"/>
	<g>
		<rect x="209.9" y="529.8" class="st3" width="6" height="11.4"/>
		<rect x="209.9" y="772.8" class="st3" width="6" height="11.4"/>
	</g>
	<g>
		
			<rect x="194" y="530.9" transform="matrix(0.9914 -0.1305 0.1305 0.9914 -68.3529 30.3041)" class="st3" width="6" height="11.4"/>
		
			<rect x="225.7" y="771.7" transform="matrix(0.9914 -0.1305 0.1305 0.9914 -99.5212 36.5039)" class="st3" width="6" height="11.4"/>
	</g>
	<g>
		
			<rect x="178.4" y="534" transform="matrix(0.9659 -0.2588 0.2588 0.9659 -133.4989 65.343)" class="st3" width="6" height="11.4"/>
		
			<rect x="241.3" y="768.6" transform="matrix(0.9659 -0.2588 0.2588 0.9659 -192.0929 89.6134)" class="st3" width="6" height="11.4"/>
	</g>
	<g>
		
			<rect x="163.4" y="539.1" transform="matrix(0.9239 -0.3827 0.3827 0.9239 -195.8185 105.1364)" class="st3" width="6" height="11.4"/>
		
			<rect x="256.4" y="763.5" transform="matrix(0.9239 -0.3827 0.3827 0.9239 -274.6359 157.8005)" class="st3" width="6" height="11.4"/>
	</g>
	<g>
		<rect x="149.1" y="546.1" transform="matrix(0.866 -0.5 0.5 0.866 -255.5296 149.9888)" class="st3" width="6" height="11.4"/>
		<rect x="270.6" y="756.5" transform="matrix(0.866 -0.5 0.5 0.866 -344.454 238.9132)" class="st3" width="6" height="11.4"/>
	</g>
	<g>
		
			<rect x="135.9" y="554.9" transform="matrix(0.7934 -0.6088 0.6088 0.7934 -312.5956 200.4167)" class="st3" width="6" height="11.4"/>
		
			<rect x="283.8" y="747.7" transform="matrix(0.7934 -0.6088 0.6088 0.7934 -399.3672 330.2797)" class="st3" width="6" height="11.4"/>
	</g>
	<g>
		
			<rect x="124" y="565.4" transform="matrix(0.7071 -0.7071 0.7071 0.7071 -366.6594 257.0526)" class="st3" width="6" height="11.4"/>
		
			<rect x="295.8" y="737.2" transform="matrix(0.7071 -0.7071 0.7071 0.7071 -437.8167 428.8414)" class="st3" width="6" height="11.4"/>
	</g>
	<g>
		
			<rect x="113.5" y="577.4" transform="matrix(0.6088 -0.7934 0.7934 0.6088 -417.0074 320.532)" class="st3" width="6" height="11.4"/>
		
			<rect x="306.2" y="725.3" transform="matrix(0.6088 -0.7934 0.7934 0.6088 -458.9332 531.3073)" class="st3" width="6" height="11.4"/>
	</g>
	<g>
		<rect x="104.7" y="590.6" transform="matrix(0.5 -0.866 0.866 0.5 -462.5668 391.3734)" class="st3" width="6" height="11.4"/>
		<rect x="315.1" y="712" transform="matrix(0.5 -0.866 0.866 0.5 -462.5668 634.3195)" class="st3" width="6" height="11.4"/>
	</g>
	<g>
		
			<rect x="97.6" y="604.8" transform="matrix(0.3827 -0.9239 0.9239 0.3827 -501.9387 469.8599)" class="st3" width="6" height="11.4"/>
		
			<rect x="322.1" y="697.8" transform="matrix(0.3827 -0.9239 0.9239 0.3827 -449.2746 734.6202)" class="st3" width="6" height="11.4"/>
	</g>
	<g>
		
			<rect x="92.5" y="619.9" transform="matrix(0.2588 -0.9659 0.9659 0.2588 -533.4641 555.9326)" class="st3" width="6" height="11.4"/>
		
			<rect x="327.2" y="682.7" transform="matrix(0.2588 -0.9659 0.9659 0.2588 -420.2692 829.2092)" class="st3" width="6" height="11.4"/>
	</g>
	<g>
		
			<rect x="89.4" y="635.4" transform="matrix(0.1305 -0.9914 0.9914 0.1305 -555.3197 649.104)" class="st3" width="6" height="11.4"/>
		
			<rect x="330.3" y="667.2" transform="matrix(0.1305 -0.9914 0.9914 0.1305 -377.3311 915.4828)" class="st3" width="6" height="11.4"/>
	</g>
	<g>
		
			<rect x="88.4" y="651.3" transform="matrix(4.500229e-11 -1 1 4.500229e-11 -565.6362 748.3994)" class="st3" width="6" height="11.4"/>
		
			<rect x="331.3" y="651.3" transform="matrix(4.500229e-11 -1 1 4.500229e-11 -322.6901 991.3455)" class="st3" width="6" height="11.4"/>
	</g>
	<g>
		
			<rect x="89.4" y="667.2" transform="matrix(-0.1305 -0.9914 0.9914 -0.1305 -562.6326 852.3309)" class="st3" width="6" height="11.4"/>
		
			<rect x="330.3" y="635.4" transform="matrix(-0.1305 -0.9914 0.9914 -0.1305 -258.8858 1055.288)" class="st3" width="6" height="11.4"/>
	</g>
	<g>
		
			<rect x="92.5" y="682.7" transform="matrix(-0.2588 -0.9659 0.9659 -0.2588 -544.7555 958.9091)" class="st3" width="6" height="11.4"/>
		
			<rect x="327.2" y="619.9" transform="matrix(-0.2588 -0.9659 0.9659 -0.2588 -188.6145 1106.4275)" class="st3" width="6" height="11.4"/>
	</g>
	<g>
		
			<rect x="97.6" y="697.8" transform="matrix(-0.3827 -0.9239 0.9239 -0.3827 -510.8156 1065.6909)" class="st3" width="6" height="11.4"/>
		
			<rect x="322.1" y="604.8" transform="matrix(-0.3827 -0.9239 0.9239 -0.3827 -114.5738 1144.5083)" class="st3" width="6" height="11.4"/>
	</g>
	<g>
		<rect x="104.7" y="712" transform="matrix(-0.5 -0.866 0.866 -0.5 -460.1097 1169.8643)" class="st3" width="6" height="11.4"/>
		<rect x="315.1" y="590.6" transform="matrix(-0.5 -0.866 0.866 -0.5 -39.3147 1169.8643)" class="st3" width="6" height="11.4"/>
	</g>
	<g>
		
			<rect x="113.5" y="725.3" transform="matrix(-0.6088 -0.7934 0.7934 -0.6088 -392.52 1268.3624)" class="st3" width="6" height="11.4"/>
		
			<rect x="306.2" y="577.4" transform="matrix(-0.6088 -0.7934 0.7934 -0.6088 34.8901 1183.3452)" class="st3" width="6" height="11.4"/>
	</g>
	<g>
		
			<rect x="124" y="737.2" transform="matrix(-0.7071 -0.7071 0.7071 -0.7071 -308.5836 1358.0049)" class="st3" width="6" height="11.4"/>
		
			<rect x="295.8" y="565.4" transform="matrix(-0.7071 -0.7071 0.7071 -0.7071 106.1513 1186.2161)" class="st3" width="6" height="11.4"/>
	</g>
	<g>
		
			<rect x="135.9" y="747.7" transform="matrix(-0.7934 -0.6088 0.6088 -0.7934 -209.5256 1435.6533)" class="st3" width="6" height="11.4"/>
		
			<rect x="283.8" y="554.9" transform="matrix(-0.7934 -0.6088 0.6088 -0.7934 173.0385 1180.0321)" class="st3" width="6" height="11.4"/>
	</g>
	<g>
		<rect x="149.1" y="756.5" transform="matrix(-0.866 -0.5 0.5 -0.866 -97.252 1498.3745)" class="st3" width="6" height="11.4"/>
		<rect x="270.6" y="546.1" transform="matrix(-0.866 -0.5 0.5 -0.866 234.6185 1166.5039)" class="st3" width="6" height="11.4"/>
	</g>
	<g>
		
			<rect x="163.4" y="763.5" transform="matrix(-0.9239 -0.3827 0.3827 -0.9239 25.6967 1543.6)" class="st3" width="6" height="11.4"/>
		
			<rect x="256.4" y="539.1" transform="matrix(-0.9239 -0.3827 0.3827 -0.9239 290.457 1147.3582)" class="st3" width="6" height="11.4"/>
	</g>
	<g>
		
			<rect x="178.4" y="768.6" transform="matrix(-0.9659 -0.2588 0.2588 -0.9659 156.2316 1569.2719)" class="st3" width="6" height="11.4"/>
		
			<rect x="241.3" y="534" transform="matrix(-0.9659 -0.2588 0.2588 -0.9659 340.5837 1124.2064)" class="st3" width="6" height="11.4"/>
	</g>
	<g>
		
			<rect x="194" y="771.7" transform="matrix(-0.9914 -0.1305 0.1305 -0.9914 290.8353 1573.9656)" class="st3" width="6" height="11.4"/>
		
			<rect x="225.7" y="530.9" transform="matrix(-0.9914 -0.1305 0.1305 -0.9914 385.4252 1098.4301)" class="st3" width="6" height="11.4"/>
	</g>
	<g>
		<rect x="211.6" y="562" class="st3" width="2.5" height="15.7"/>
		<rect x="211.6" y="737.1" class="st3" width="2.5" height="15.7"/>
	</g>
	<g>
		
			<rect x="205.9" y="562.2" transform="matrix(0.9979 -6.540313e-02 6.540313e-02 0.9979 -36.837 14.7673)" class="st3" width="2.5" height="15.7"/>
		
			<rect x="217.3" y="736.9" transform="matrix(0.9979 -6.540313e-02 6.540313e-02 0.9979 -48.2413 15.8905)" class="st3" width="2.5" height="15.7"/>
	</g>
	<g>
		
			<rect x="200.2" y="562.7" transform="matrix(0.9914 -0.1305 0.1305 0.9914 -72.7515 31.1727)" class="st3" width="2.5" height="15.7"/>
		
			<rect x="223" y="736.4" transform="matrix(0.9914 -0.1305 0.1305 0.9914 -95.218 35.6415)" class="st3" width="2.5" height="15.7"/>
	</g>
	<g>
		
			<rect x="194.5" y="563.7" transform="matrix(0.9808 -0.1951 0.1951 0.9808 -107.7336 49.1747)" class="st3" width="2.5" height="15.7"/>
		
			<rect x="228.7" y="735.4" transform="matrix(0.9808 -0.1951 0.1951 0.9808 -140.5847 59.1399)" class="st3" width="2.5" height="15.7"/>
	</g>
	<g>
		
			<rect x="188.9" y="565" transform="matrix(0.9659 -0.2588 0.2588 0.9659 -141.7728 68.7434)" class="st3" width="2.5" height="15.7"/>
		
			<rect x="234.3" y="734.1" transform="matrix(0.9659 -0.2588 0.2588 0.9659 -184.0081 86.2378)" class="st3" width="2.5" height="15.7"/>
	</g>
	<g>
		
			<rect x="183.5" y="566.6" transform="matrix(0.9469 -0.3214 0.3214 0.9469 -174.855 89.86)" class="st3" width="2.5" height="15.7"/>
		
			<rect x="239.7" y="732.5" transform="matrix(0.9469 -0.3214 0.3214 0.9469 -225.1705 116.7542)" class="st3" width="2.5" height="15.7"/>
	</g>
	<g>
		
			<rect x="178.1" y="568.7" transform="matrix(0.9239 -0.3827 0.3827 0.9239 -206.9608 112.5158)" class="st3" width="2.5" height="15.7"/>
		
			<rect x="245.1" y="730.4" transform="matrix(0.9239 -0.3827 0.3827 0.9239 -263.7734 150.4768)" class="st3" width="2.5" height="15.7"/>
	</g>
	<g>
		
			<rect x="172.9" y="571" transform="matrix(0.8969 -0.4423 0.4423 0.8969 -238.063 136.7105)" class="st3" width="2.5" height="15.7"/>
		
			<rect x="250.3" y="728.1" transform="matrix(0.8969 -0.4423 0.4423 0.8969 -299.5411 187.1642)" class="st3" width="2.5" height="15.7"/>
	</g>
	<g>
		<rect x="167.8" y="573.7" transform="matrix(0.866 -0.5 0.5 0.866 -268.1255 162.451)" class="st3" width="2.5" height="15.7"/>
		<rect x="255.4" y="725.4" transform="matrix(0.866 -0.5 0.5 0.866 -332.2235 226.549)" class="st3" width="2.5" height="15.7"/>
	</g>
	<g>
		
			<rect x="163" y="576.7" transform="matrix(0.8315 -0.5556 0.5556 0.8315 -297.1011 189.7493)" class="st3" width="2.5" height="15.7"/>
		
			<rect x="260.2" y="722.4" transform="matrix(0.8315 -0.5556 0.5556 0.8315 -361.5991 268.3402)" class="st3" width="2.5" height="15.7"/>
	</g>
	<g>
		
			<rect x="158.3" y="580.1" transform="matrix(0.7934 -0.6088 0.6088 0.7934 -324.9308 218.6202)" class="st3" width="2.5" height="15.7"/>
		
			<rect x="264.9" y="719" transform="matrix(0.7934 -0.6088 0.6088 0.7934 -387.477 312.2273)" class="st3" width="2.5" height="15.7"/>
	</g>
	<g>
		
			<rect x="153.9" y="583.7" transform="matrix(0.7518 -0.6593 0.6593 0.7518 -351.5424 249.0793)" class="st3" width="2.5" height="15.7"/>
		
			<rect x="269.3" y="715.4" transform="matrix(0.7518 -0.6593 0.6593 0.7518 -409.6993 357.8831)" class="st3" width="2.5" height="15.7"/>
	</g>
	<g>
		
			<rect x="149.7" y="587.6" transform="matrix(0.7071 -0.7071 0.7071 0.7071 -376.8509 281.1402)" class="st3" width="2.5" height="15.7"/>
		
			<rect x="273.5" y="711.5" transform="matrix(0.7071 -0.7071 0.7071 0.7071 -428.1421 404.9679)" class="st3" width="2.5" height="15.7"/>
	</g>
	<g>
		
			<rect x="145.8" y="591.8" transform="matrix(0.6593 -0.7518 0.7518 0.6593 -400.7574 314.8122)" class="st3" width="2.5" height="15.7"/>
		
			<rect x="277.4" y="707.3" transform="matrix(0.6593 -0.7518 0.7518 0.6593 -442.7168 453.1337)" class="st3" width="2.5" height="15.7"/>
	</g>
	<g>
		
			<rect x="142.1" y="596.2" transform="matrix(0.6088 -0.7934 0.7934 0.6088 -423.1499 350.0977)" class="st3" width="2.5" height="15.7"/>
		
			<rect x="281.1" y="702.9" transform="matrix(0.6088 -0.7934 0.7934 0.6088 -453.3706 502.0275)" class="st3" width="2.5" height="15.7"/>
	</g>
	<g>
		
			<rect x="138.8" y="600.9" transform="matrix(0.5556 -0.8315 0.8315 0.5556 -443.9039 386.9899)" class="st3" width="2.5" height="15.7"/>
		
			<rect x="284.4" y="698.2" transform="matrix(0.5556 -0.8315 0.8315 0.5556 -460.0866 551.2958)" class="st3" width="2.5" height="15.7"/>
	</g>
	<g>
		<rect x="135.8" y="605.8" transform="matrix(0.5 -0.866 0.866 0.5 -462.8833 425.4697)" class="st3" width="2.5" height="15.7"/>
		<rect x="287.4" y="693.3" transform="matrix(0.5 -0.866 0.866 0.5 -462.8833 600.5886)" class="st3" width="2.5" height="15.7"/>
	</g>
	<g>
		
			<rect x="133.1" y="610.8" transform="matrix(0.4423 -0.8969 0.8969 0.4423 -479.9418 465.5042)" class="st3" width="2.5" height="15.7"/>
		
			<rect x="290.1" y="688.3" transform="matrix(0.4423 -0.8969 0.8969 0.4423 -461.8136 649.563)" class="st3" width="2.5" height="15.7"/>
	</g>
	<g>
		
			<rect x="130.7" y="616" transform="matrix(0.3827 -0.9239 0.9239 0.3827 -494.9248 507.0442)" class="st3" width="2.5" height="15.7"/>
		
			<rect x="292.5" y="683.1" transform="matrix(0.3827 -0.9239 0.9239 0.3827 -456.9638 697.8871)" class="st3" width="2.5" height="15.7"/>
	</g>
	<g>
		
			<rect x="128.7" y="621.4" transform="matrix(0.3214 -0.9469 0.9469 0.3214 -507.6711 550.0222)" class="st3" width="2.5" height="15.7"/>
		
			<rect x="294.5" y="677.7" transform="matrix(0.3214 -0.9469 0.9469 0.3214 -448.4514 745.2435)" class="st3" width="2.5" height="15.7"/>
	</g>
	<g>
		
			<rect x="127" y="626.9" transform="matrix(0.2588 -0.9659 0.9659 0.2588 -518.0159 594.351)" class="st3" width="2.5" height="15.7"/>
		
			<rect x="296.2" y="672.2" transform="matrix(0.2588 -0.9659 0.9659 0.2588 -436.4235 791.3325)" class="st3" width="2.5" height="15.7"/>
	</g>
	<g>
		
			<rect x="125.7" y="632.5" transform="matrix(0.1951 -0.9808 0.9808 0.1951 -525.7925 639.9225)" class="st3" width="2.5" height="15.7"/>
		
			<rect x="297.5" y="666.6" transform="matrix(0.1951 -0.9808 0.9808 0.1951 -421.0536 835.8752)" class="st3" width="2.5" height="15.7"/>
	</g>
	<g>
		
			<rect x="124.8" y="638.1" transform="matrix(0.1305 -0.9914 0.9914 0.1305 -530.8361 686.6064)" class="st3" width="2.5" height="15.7"/>
		
			<rect x="298.4" y="661" transform="matrix(0.1305 -0.9914 0.9914 0.1305 -402.5394 878.6159)" class="st3" width="2.5" height="15.7"/>
	</g>
	<g>
		
			<rect x="124.2" y="643.8" transform="matrix(6.540313e-02 -0.9979 0.9979 6.540313e-02 -532.9857 734.2502)" class="st3" width="2.5" height="15.7"/>
		
			<rect x="299" y="655.3" transform="matrix(6.540313e-02 -0.9979 0.9979 6.540313e-02 -381.0993 919.3243)" class="st3" width="2.5" height="15.7"/>
	</g>
	<g>
		
			<rect x="124" y="649.6" transform="matrix(4.463725e-11 -1 1 4.463725e-11 -532.0881 782.6785)" class="st3" width="2.5" height="15.7"/>
		
			<rect x="299.2" y="649.6" transform="matrix(4.354834e-11 -1 1 4.354834e-11 -356.9692 957.7974)" class="st3" width="2.5" height="15.7"/>
	</g>
	<g>
		
			<rect x="124.2" y="655.3" transform="matrix(-6.540313e-02 -0.9979 0.9979 -6.540313e-02 -528.0005 831.6934)" class="st3" width="2.5" height="15.7"/>
		
			<rect x="299" y="643.8" transform="matrix(-6.540313e-02 -0.9979 0.9979 -6.540313e-02 -330.399 993.8608)" class="st3" width="2.5" height="15.7"/>
	</g>
	<g>
		
			<rect x="124.8" y="661" transform="matrix(-0.1305 -0.9914 0.9914 -0.1305 -520.594 881.0755)" class="st3" width="2.5" height="15.7"/>
		
			<rect x="298.4" y="638.1" transform="matrix(-0.1305 -0.9914 0.9914 -0.1305 -301.6491 1027.3698)" class="st3" width="2.5" height="15.7"/>
	</g>
	<g>
		
			<rect x="125.7" y="666.6" transform="matrix(-0.1951 -0.9808 0.9808 -0.1951 -509.7559 930.5847)" class="st3" width="2.5" height="15.7"/>
		
			<rect x="297.5" y="632.5" transform="matrix(-0.1951 -0.9808 0.9808 -0.1951 -270.9868 1058.2095)" class="st3" width="2.5" height="15.7"/>
	</g>
	<g>
		
			<rect x="127" y="672.2" transform="matrix(-0.2588 -0.9659 0.9659 -0.2588 -495.3937 979.9617)" class="st3" width="2.5" height="15.7"/>
		
			<rect x="296.2" y="626.9" transform="matrix(-0.2588 -0.9659 0.9659 -0.2588 -238.6824 1086.295)" class="st3" width="2.5" height="15.7"/>
	</g>
	<g>
		
			<rect x="128.7" y="677.7" transform="matrix(-0.3214 -0.9469 0.9469 -0.3214 -477.437 1028.9302)" class="st3" width="2.5" height="15.7"/>
		
			<rect x="294.5" y="621.4" transform="matrix(-0.3214 -0.9469 0.9469 -0.3214 -205.006 1111.5712)" class="st3" width="2.5" height="15.7"/>
	</g>
	<g>
		
			<rect x="130.7" y="683.1" transform="matrix(-0.3827 -0.9239 0.9239 -0.3827 -455.8407 1077.1987)" class="st3" width="2.5" height="15.7"/>
		
			<rect x="292.5" y="616" transform="matrix(-0.3827 -0.9239 0.9239 -0.3827 -170.2241 1134.0114)" class="st3" width="2.5" height="15.7"/>
	</g>
	<g>
		
			<rect x="133.1" y="688.3" transform="matrix(-0.4423 -0.8969 0.8969 -0.4423 -430.5866 1124.4637)" class="st3" width="2.5" height="15.7"/>
		
			<rect x="290.1" y="610.8" transform="matrix(-0.4423 -0.8969 0.8969 -0.4423 -134.5961 1153.6162)" class="st3" width="2.5" height="15.7"/>
	</g>
	<g>
		
			<rect x="135.8" y="693.3" transform="matrix(-0.5 -0.866 0.866 -0.5 -401.6861 1170.4125)" class="st3" width="2.5" height="15.7"/>
		
			<rect x="287.4" y="605.8" transform="matrix(-0.5 -0.866 0.866 -0.5 -98.3713 1170.4125)" class="st3" width="2.5" height="15.7"/>
	</g>
	<g>
		
			<rect x="138.8" y="698.2" transform="matrix(-0.5556 -0.8315 0.8315 -0.5556 -369.1813 1214.726)" class="st3" width="2.5" height="15.7"/>
		
			<rect x="284.4" y="600.9" transform="matrix(-0.5556 -0.8315 0.8315 -0.5556 -61.7865 1184.4502)" class="st3" width="2.5" height="15.7"/>
	</g>
	<g>
		
			<rect x="142.1" y="702.9" transform="matrix(-0.6088 -0.7934 0.7934 -0.6088 -333.1464 1257.0825)" class="st3" width="2.5" height="15.7"/>
		
			<rect x="281.1" y="596.2" transform="matrix(-0.6088 -0.7934 0.7934 -0.6088 -25.0634 1195.801)" class="st3" width="2.5" height="15.7"/>
	</g>
	<g>
		
			<rect x="145.8" y="707.3" transform="matrix(-0.6593 -0.7518 0.7518 -0.6593 -293.6885 1297.162)" class="st3" width="2.5" height="15.7"/>
		
			<rect x="277.4" y="591.8" transform="matrix(-0.6593 -0.7518 0.7518 -0.6593 11.5936 1204.5557)" class="st3" width="2.5" height="15.7"/>
	</g>
	<g>
		
			<rect x="149.7" y="711.5" transform="matrix(-0.7071 -0.7071 0.7071 -0.7071 -250.9479 1334.6483)" class="st3" width="2.5" height="15.7"/>
		
			<rect x="273.5" y="587.6" transform="matrix(-0.7071 -0.7071 0.7071 -0.7071 47.9987 1210.8206)" class="st3" width="2.5" height="15.7"/>
	</g>
	<g>
		
			<rect x="153.9" y="715.4" transform="matrix(-0.7518 -0.6593 0.6593 -0.7518 -205.098 1369.2345)" class="st3" width="2.5" height="15.7"/>
		
			<rect x="269.3" y="583.7" transform="matrix(-0.7518 -0.6593 0.6593 -0.7518 83.9866 1214.7156)" class="st3" width="2.5" height="15.7"/>
	</g>
	<g>
		
			<rect x="158.3" y="719" transform="matrix(-0.7934 -0.6088 0.6088 -0.7934 -156.3448 1400.6259)" class="st3" width="2.5" height="15.7"/>
		
			<rect x="264.9" y="580.1" transform="matrix(-0.7934 -0.6088 0.6088 -0.7934 119.4127 1216.3706)" class="st3" width="2.5" height="15.7"/>
	</g>
	<g>
		
			<rect x="163" y="722.4" transform="matrix(-0.8315 -0.5556 0.5556 -0.8315 -104.9256 1428.5438)" class="st3" width="2.5" height="15.7"/>
		
			<rect x="260.2" y="576.7" transform="matrix(-0.8315 -0.5556 0.5556 -0.8315 154.154 1215.9226)" class="st3" width="2.5" height="15.7"/>
	</g>
	<g>
		
			<rect x="167.8" y="725.4" transform="matrix(-0.866 -0.5 0.5 -0.866 -51.1079 1452.7296)" class="st3" width="2.5" height="15.7"/>
		
			<rect x="255.4" y="573.7" transform="matrix(-0.866 -0.5 0.5 -0.866 188.1089 1213.5128)" class="st3" width="2.5" height="15.7"/>
	</g>
	<g>
		
			<rect x="172.9" y="728.1" transform="matrix(-0.8969 -0.4423 0.4423 -0.8969 4.8128 1472.9481)" class="st3" width="2.5" height="15.7"/>
		
			<rect x="250.3" y="571" transform="matrix(-0.8969 -0.4423 0.4423 -0.8969 221.1971 1209.2831)" class="st3" width="2.5" height="15.7"/>
	</g>
	<g>
		
			<rect x="178.1" y="730.4" transform="matrix(-0.9239 -0.3827 0.3827 -0.9239 62.5155 1488.9905)" class="st3" width="2.5" height="15.7"/>
		
			<rect x="245.1" y="568.7" transform="matrix(-0.9239 -0.3827 0.3827 -0.9239 253.3584 1203.3739)" class="st3" width="2.5" height="15.7"/>
	</g>
	<g>
		
			<rect x="183.5" y="732.5" transform="matrix(-0.9469 -0.3214 0.3214 -0.9469 121.6563 1500.6775)" class="st3" width="2.5" height="15.7"/>
		
			<rect x="239.7" y="566.6" transform="matrix(-0.9469 -0.3214 0.3214 -0.9469 284.552 1195.9209)" class="st3" width="2.5" height="15.7"/>
	</g>
	<g>
		
			<rect x="188.9" y="734.1" transform="matrix(-0.9659 -0.2588 0.2588 -0.9659 181.8713 1507.8623)" class="st3" width="2.5" height="15.7"/>
		
			<rect x="234.3" y="565" transform="matrix(-0.9659 -0.2588 0.2588 -0.9659 314.7549 1187.053)" class="st3" width="2.5" height="15.7"/>
	</g>
	<g>
		
			<rect x="194.5" y="735.4" transform="matrix(-0.9808 -0.1951 0.1951 -0.9808 242.7806 1510.4324)" class="st3" width="2.5" height="15.7"/>
		
			<rect x="228.7" y="563.7" transform="matrix(-0.9808 -0.1951 0.1951 -0.9808 343.9597 1176.8896)" class="st3" width="2.5" height="15.7"/>
	</g>
	<g>
		
			<rect x="200.2" y="736.4" transform="matrix(-0.9914 -0.1305 0.1305 -0.9914 303.9917 1508.312)" class="st3" width="2.5" height="15.7"/>
		
			<rect x="223" y="562.7" transform="matrix(-0.9914 -0.1305 0.1305 -0.9914 372.1734 1165.5393)" class="st3" width="2.5" height="15.7"/>
	</g>
	<g>
		
			<rect x="205.9" y="736.9" transform="matrix(-0.9979 -6.540313e-02 6.540313e-02 -0.9979 365.1031 1501.4628)" class="st3" width="2.5" height="15.7"/>
		
			<rect x="217.3" y="562.2" transform="matrix(-0.9979 -6.540313e-02 6.540313e-02 -0.9979 399.4141 1153.098)" class="st3" width="2.5" height="15.7"/>
	</g>
	<g>
		
			<rect x="188.9" y="565" transform="matrix(0.9659 -0.2588 0.2588 0.9659 -141.7728 68.7434)" class="st3" width="2.5" height="15.7"/>
		
			<rect x="234.3" y="734.1" transform="matrix(0.9659 -0.2588 0.2588 0.9659 -184.0081 86.2378)" class="st3" width="2.5" height="15.7"/>
	</g>
	<g>
		<rect x="167.8" y="573.7" transform="matrix(0.866 -0.5 0.5 0.866 -268.1255 162.451)" class="st3" width="2.5" height="15.7"/>
		<rect x="255.4" y="725.4" transform="matrix(0.866 -0.5 0.5 0.866 -332.2235 226.549)" class="st3" width="2.5" height="15.7"/>
	</g>
	<g>
		
			<rect x="149.7" y="587.6" transform="matrix(0.7071 -0.7071 0.7071 0.7071 -376.8509 281.1402)" class="st3" width="2.5" height="15.7"/>
		
			<rect x="273.5" y="711.5" transform="matrix(0.7071 -0.7071 0.7071 0.7071 -428.1421 404.9679)" class="st3" width="2.5" height="15.7"/>
	</g>
	<g>
		<rect x="135.8" y="605.8" transform="matrix(0.5 -0.866 0.866 0.5 -462.8833 425.4697)" class="st3" width="2.5" height="15.7"/>
		<rect x="287.4" y="693.3" transform="matrix(0.5 -0.866 0.866 0.5 -462.8833 600.5886)" class="st3" width="2.5" height="15.7"/>
	</g>
	<g>
		
			<rect x="127" y="626.9" transform="matrix(0.2588 -0.9659 0.9659 0.2588 -518.0159 594.351)" class="st3" width="2.5" height="15.7"/>
		
			<rect x="296.2" y="672.2" transform="matrix(0.2588 -0.9659 0.9659 0.2588 -436.4235 791.3325)" class="st3" width="2.5" height="15.7"/>
	</g>
	<g>
		
			<rect x="124" y="649.6" transform="matrix(4.391160e-11 -1 1 4.391160e-11 -532.0881 782.6785)" class="st3" width="2.5" height="15.7"/>
		
			<rect x="299.2" y="649.6" transform="matrix(4.391160e-11 -1 1 4.391160e-11 -356.9692 957.7974)" class="st3" width="2.5" height="15.7"/>
	</g>
	<g>
		
			<rect x="127" y="672.2" transform="matrix(-0.2588 -0.9659 0.9659 -0.2588 -495.3937 979.9617)" class="st3" width="2.5" height="15.7"/>
		
			<rect x="296.2" y="626.9" transform="matrix(-0.2588 -0.9659 0.9659 -0.2588 -238.6824 1086.295)" class="st3" width="2.5" height="15.7"/>
	</g>
	<g>
		
			<rect x="135.8" y="693.3" transform="matrix(-0.5 -0.866 0.866 -0.5 -401.6861 1170.4125)" class="st3" width="2.5" height="15.7"/>
		
			<rect x="287.4" y="605.8" transform="matrix(-0.5 -0.866 0.866 -0.5 -98.3713 1170.4125)" class="st3" width="2.5" height="15.7"/>
	</g>
	<g>
		
			<rect x="149.7" y="711.5" transform="matrix(-0.7071 -0.7071 0.7071 -0.7071 -250.9479 1334.6483)" class="st3" width="2.5" height="15.7"/>
		
			<rect x="273.5" y="587.6" transform="matrix(-0.7071 -0.7071 0.7071 -0.7071 47.9987 1210.8206)" class="st3" width="2.5" height="15.7"/>
	</g>
	<g>
		
			<rect x="167.8" y="725.4" transform="matrix(-0.866 -0.5 0.5 -0.866 -51.1079 1452.7296)" class="st3" width="2.5" height="15.7"/>
		
			<rect x="255.4" y="573.7" transform="matrix(-0.866 -0.5 0.5 -0.866 188.1089 1213.5128)" class="st3" width="2.5" height="15.7"/>
	</g>
	<g>
		
			<rect x="188.9" y="734.1" transform="matrix(-0.9659 -0.2588 0.2588 -0.9659 181.8713 1507.8623)" class="st3" width="2.5" height="15.7"/>
		
			<rect x="234.3" y="565" transform="matrix(-0.9659 -0.2588 0.2588 -0.9659 314.7549 1187.053)" class="st3" width="2.5" height="15.7"/>
	</g>
</g>
<g>
	<g>
		
			<rect x="1091.7" y="256.3" transform="matrix(0.5556 -0.8315 0.8315 0.5556 269.0197 1025.2531)" class="st1" width="3.8" height="9.3"/>
	</g>
	<g>
		<rect x="1087.6" y="263" transform="matrix(0.5 -0.866 0.866 0.5 312.9576 1077.2888)" class="st1" width="3.8" height="9.3"/>
	</g>
	<g>
		
			<rect x="1083.9" y="269.9" transform="matrix(0.4423 -0.8969 0.8969 0.4423 359.3363 1126.8795)" class="st1" width="3.8" height="9.3"/>
	</g>
	<g>
		
			<rect x="1080.6" y="277" transform="matrix(0.3827 -0.9239 0.9239 0.3827 408.0686 1173.9795)" class="st1" width="3.8" height="9.3"/>
	</g>
	<g>
		<path class="st3" d="M1193.7,266.7c-34.3,0-62,27.8-62,62s27.8,62,62,62c34.3,0,62-27.8,62-62S1228,266.7,1193.7,266.7z
			 M1193.7,382.9c-29.9,0-54.2-24.3-54.2-54.2c0-29.9,24.3-54.2,54.2-54.2c29.9,0,54.2,24.3,54.2,54.2
			C1247.9,358.6,1223.7,382.9,1193.7,382.9z"/>
		<path class="st3" d="M1193.7,266.7c-34.3,0-62,27.8-62,62s27.8,62,62,62c34.3,0,62-27.8,62-62S1228,266.7,1193.7,266.7z
			 M1193.7,382.9c-29.9,0-54.2-24.3-54.2-54.2c0-29.9,24.3-54.2,54.2-54.2c29.9,0,54.2,24.3,54.2,54.2
			C1247.9,358.6,1223.7,382.9,1193.7,382.9z"/>
		<rect x="1099.1" y="324.7" class="st1" width="53" height="4.6"/>
		<rect x="1234" y="324.7" class="st1" width="53" height="4.6"/>
		
			<rect x="1166.6" y="392.2" transform="matrix(6.123234e-17 -1 1 6.123234e-17 798.6138 1587.606)" class="st1" width="53" height="4.6"/>
		
			<rect x="1166.6" y="257.3" transform="matrix(6.123234e-17 -1 1 6.123234e-17 933.5295 1452.6902)" class="st1" width="53" height="4.6"/>
		<g>
			<path class="st2" d="M1193.7,249c-44,0-79.7,35.7-79.7,79.7c0,44,35.7,79.7,79.7,79.7c44,0,79.7-35.7,79.7-79.7
				C1273.5,284.7,1237.8,249,1193.7,249z M1193.7,402.6c-40.8,0-73.9-33.1-73.9-73.9s33.1-73.9,73.9-73.9
				c40.8,0,73.9,33.1,73.9,73.9S1234.6,402.6,1193.7,402.6z"/>
			<g>
				<path class="st2" d="M1104.8,281.4c1.1-2.1,2.3-4.1,3.5-6c8.1-13,19.1-24,32.1-32.1l-5.5-9.6c-14.6,9.1-27,21.5-36.1,36.1
					c-1.2,2-2.4,4-3.5,6c-7.9,14.8-12.7,31.5-13.2,49.3c0,1.2-0.1,2.3-0.1,3.5c0,1.2,0,2.3,0.1,3.5c0.5,17.8,5.3,34.6,13.2,49.3
					c1.1,2,2.3,4.1,3.5,6c9.1,14.6,21.5,27,36.1,36.1l5.5-9.6c-13-8.1-24-19.1-32.1-32.1c-1.2-2-2.4-4-3.5-6
					c-7-13.1-11.2-28-11.7-43.8c0-1.2-0.1-2.3-0.1-3.5c0-1.2,0-2.3,0.1-3.5C1093.7,309.4,1097.8,294.5,1104.8,281.4z"/>
				<path class="st2" d="M1305.4,325.2c-0.5-17.8-5.3-34.6-13.2-49.3c-1.1-2-2.3-4.1-3.5-6c-9.1-14.6-21.5-27-36.1-36.1l-5.5,9.6
					c13,8.1,24,19.1,32.1,32.1c1.2,2,2.4,4,3.5,6c7,13.1,11.2,28,11.7,43.8c0,1.2,0.1,2.3,0.1,3.5c0,1.2,0,2.3-0.1,3.5
					c-0.5,15.8-4.7,30.7-11.7,43.8c-1.1,2.1-2.3,4.1-3.5,6c-8.1,13-19.1,24-32.1,32.1l5.5,9.6c14.6-9.1,27-21.5,36.1-36.1
					c1.2-2,2.4-4,3.5-6c7.9-14.8,12.7-31.5,13.2-49.3c0-1.2,0.1-2.3,0.1-3.5C1305.4,327.5,1305.4,326.4,1305.4,325.2z"/>
			</g>
		</g>
		<g>
			<rect x="1191" y="442.2" class="st1" width="3.8" height="9.3"/>
		</g>
		<g>
			
				<rect x="1198.8" y="441.9" transform="matrix(0.9979 -6.540313e-02 6.540313e-02 0.9979 -26.6357 79.4866)" class="st1" width="3.8" height="9.3"/>
		</g>
		<g>
			
				<rect x="1206.6" y="441.2" transform="matrix(0.9914 -0.1305 0.1305 0.9914 -47.8492 161.5541)" class="st1" width="3.8" height="9.3"/>
		</g>
		<g>
			
				<rect x="1214.3" y="439.9" transform="matrix(0.9808 -0.1951 0.1951 0.9808 -63.3529 245.8118)" class="st1" width="3.8" height="9.3"/>
		</g>
		<g>
			
				<rect x="1221.9" y="438.1" transform="matrix(0.9659 -0.2588 0.2588 0.9659 -72.8907 331.8346)" class="st1" width="3.8" height="9.3"/>
		</g>
		<g>
			
				<rect x="1229.4" y="435.8" transform="matrix(0.9469 -0.3214 0.3214 0.9469 -76.2418 419.1654)" class="st1" width="3.8" height="9.3"/>
		</g>
		<g>
			
				<rect x="1236.7" y="433.1" transform="matrix(0.9239 -0.3827 0.3827 0.9239 -73.2254 507.3189)" class="st1" width="3.8" height="9.3"/>
		</g>
		<g>
			
				<rect x="1112.3" y="232.9" transform="matrix(0.7518 -0.6593 0.6593 0.7518 119.8694 793.542)" class="st1" width="3.8" height="9.3"/>
		</g>
		<g>
			
				<rect x="1106.5" y="238.2" transform="matrix(0.7071 -0.7071 0.7071 0.7071 152.9131 854.9099)" class="st1" width="3.8" height="9.3"/>
		</g>
		<g>
			
				<rect x="1101.2" y="243.9" transform="matrix(0.6593 -0.7518 0.7518 0.6593 188.8777 914.0186)" class="st1" width="3.8" height="9.3"/>
		</g>
		<g>
			
				<rect x="1096.2" y="250" transform="matrix(0.6088 -0.7934 0.7934 0.6088 227.6221 970.8152)" class="st1" width="3.8" height="9.3"/>
		</g>
		<g>
			
				<rect x="1160.1" y="438.1" transform="matrix(-0.9659 -0.2588 0.2588 -0.9659 2169.7756 1171.1505)" class="st1" width="3.8" height="9.3"/>
		</g>
		<g>
			
				<rect x="1167.7" y="439.9" transform="matrix(-0.9808 -0.1951 0.1951 -0.9808 2229.9924 1108.6797)" class="st1" width="3.8" height="9.3"/>
		</g>
		<g>
			
				<rect x="1175.4" y="441.2" transform="matrix(-0.9914 -0.1305 0.1305 -0.9914 2286.3545 1041.4471)" class="st1" width="3.8" height="9.3"/>
		</g>
		<g>
			
				<rect x="1183.2" y="441.9" transform="matrix(-0.9979 -6.540313e-02 6.540313e-02 -0.9979 2338.4309 969.6764)" class="st1" width="3.8" height="9.3"/>
		</g>
		<g>
			<circle class="st3" cx="1098.7" cy="417.1" r="2.1"/>
			<circle class="st3" cx="1109.8" cy="406.3" r="2.1"/>
			<circle class="st3" cx="1120.9" cy="395.6" r="2.1"/>
			<circle class="st3" cx="1132" cy="384.8" r="2.1"/>
			<circle class="st3" cx="1143" cy="374.1" r="2.1"/>
			<circle class="st3" cx="1154.1" cy="363.4" r="2.1"/>
			<circle class="st3" cx="1165.2" cy="352.6" r="2.1"/>
			<circle class="st3" cx="1176.3" cy="341.9" r="2.1"/>
			<circle class="st3" cx="1187.4" cy="331.2" r="2.1"/>
			<circle class="st3" cx="1198.4" cy="320.4" r="2.1"/>
			<circle class="st3" cx="1209.5" cy="309.7" r="2.1"/>
			<circle class="st3" cx="1220.6" cy="298.9" r="2.1"/>
			<circle class="st3" cx="1231.7" cy="288.2" r="2.1"/>
			<circle class="st3" cx="1242.8" cy="277.5" r="2.1"/>
			<circle class="st3" cx="1253.8" cy="266.7" r="2.1"/>
			<circle class="st3" cx="1264.9" cy="256" r="2.1"/>
			<circle class="st3" cx="1276" cy="245.3" r="2.1"/>
			<circle class="st3" cx="1287.1" cy="234.5" r="2.1"/>
		</g>
	</g>
</g>
<g>
	<path class="st2" d="M863.6,227.5c-53.1,0-96.2,43.1-96.2,96.2s43.1,96.2,96.2,96.2s96.2-43.1,96.2-96.2S916.8,227.5,863.6,227.5z
		 M863.6,407.7c-46.4,0-84-37.6-84-84s37.6-84,84-84c46.4,0,84,37.6,84,84S910,407.7,863.6,407.7z"/>
	<path class="st2" d="M863.6,304.7c-10.5,0-19,8.5-19,19s8.5,19,19,19c10.5,0,19-8.5,19-19S874.1,304.7,863.6,304.7z M863.6,340.3
		c-9.2,0-16.6-7.4-16.6-16.6c0-9.2,7.4-16.6,16.6-16.6c9.2,0,16.6,7.4,16.6,16.6C880.2,332.9,872.8,340.3,863.6,340.3z"/>
	<path class="st3" d="M912.6,335.5c-5.3,22.1-25.2,38.6-49,38.6c-27.8,0-50.4-22.6-50.4-50.4c0-27.2,21.5-49.3,48.4-50.3v-20.3
		c-38.1,1-68.7,32.3-68.7,70.6c0,39,31.6,70.7,70.7,70.7c35,0,64.1-25.5,69.7-58.9H912.6z"/>
	<g>
		<path class="st1" d="M962.5,378.8l11.3,6.5c4.8-8.5,8.6-17.7,11.3-27.3l-12.6-3.4C970.1,363.2,966.7,371.3,962.5,378.8z"/>
		<path class="st1" d="M944.9,402.5l9.3,9.3c6.9-7.1,12.9-14.9,18-23.4l-11.3-6.5C956.3,389.3,950.9,396.3,944.9,402.5z"/>
		<path class="st1" d="M894.6,432.6l3.4,12.6c9.6-2.7,18.8-6.5,27.3-11.3l-6.5-11.3C911.2,426.8,903.1,430.2,894.6,432.6z"/>
		<path class="st1" d="M921.7,420.9l6.5,11.3c8.5-5.1,16.4-11.1,23.4-18l-9.3-9.3C936.2,411,929.2,416.4,921.7,420.9z"/>
		<path class="st1" d="M832.7,214.8l-3.4-12.6c-9.6,2.7-18.8,6.5-27.3,11.3l6.5,11.3C816.1,220.6,824.2,217.2,832.7,214.8z"/>
		<path class="st1" d="M805.6,226.6l-6.5-11.3c-8.5,5.1-16.4,11.1-23.4,18l9.3,9.3C791.1,236.4,798,231.1,805.6,226.6z"/>
		<path class="st1" d="M782.4,244.9l-9.3-9.3c-6.9,7.1-12.9,14.9-18,23.4l11.3,6.5C771,258.1,776.3,251.2,782.4,244.9z"/>
		<path class="st1" d="M764.8,268.6l-11.3-6.5c-4.8,8.5-8.6,17.7-11.3,27.3l12.6,3.4C757.1,284.3,760.5,276.2,764.8,268.6z"/>
		<path class="st1" d="M891.3,433.5l3.4,12.6c1.1-0.3,2.2-0.6,3.3-0.9l-3.4-12.6C893.5,432.9,892.4,433.2,891.3,433.5z"/>
		<path class="st1" d="M836,213.9l-3.4-12.6c-1.1,0.3-2.2,0.6-3.3,0.9l3.4,12.6C833.8,214.5,834.9,214.2,836,213.9z"/>
		<path class="st1" d="M918.7,422.6l6.5,11.3c1-0.6,2-1.1,3-1.7l-6.5-11.3C920.7,421.5,919.7,422,918.7,422.6z"/>
		<path class="st1" d="M808.5,224.8l-6.5-11.3c-1,0.6-2,1.1-3,1.7l6.5,11.3C806.5,226,807.5,225.4,808.5,224.8z"/>
		<path class="st1" d="M942.4,405l9.3,9.3c0.8-0.8,1.6-1.6,2.4-2.4l-9.3-9.3C944.1,403.4,943.3,404.2,942.4,405z"/>
		<path class="st1" d="M784.8,242.5l-9.3-9.3c-0.8,0.8-1.6,1.6-2.4,2.4l9.3,9.3C783.2,244.1,784,243.3,784.8,242.5z"/>
		<path class="st1" d="M766.5,265.6l-11.3-6.5c-0.6,1-1.2,2-1.7,3l11.3,6.5C765.3,267.6,765.9,266.6,766.5,265.6z"/>
		<path class="st1" d="M960.8,381.8l11.3,6.5c0.6-1,1.2-2,1.7-3l-11.3-6.5C962,379.8,961.4,380.8,960.8,381.8z"/>
		<path class="st1" d="M754.7,292.8l-12.6-3.4c-0.3,1.1-0.6,2.2-0.9,3.3l12.6,3.4C754.1,295,754.4,293.9,754.7,292.8z"/>
		<path class="st1" d="M972.5,354.7l12.6,3.4c0.3-1.1,0.6-2.2,0.9-3.3l-12.6-3.4C973.1,352.5,972.9,353.6,972.5,354.7z"/>
	</g>
	<g>
		<path class="st2" d="M958.7,278.5l21.2-12.3l-8.3-14.4l-21.2,12.3L958.7,278.5z M970.7,255.6l5.6,9.7l-16.5,9.5l-5.6-9.7
			L970.7,255.6z"/>
	</g>
	<g>
		<path class="st2" d="M943.7,255.5l17.3-17.3l-11.7-11.7L932,243.7L943.7,255.5z M949.4,230.2l7.9,7.9l-13.5,13.5l-7.9-7.9
			L949.4,230.2z"/>
	</g>
	<g>
		<path class="st2" d="M923.3,237.1l12.3-21.2l-14.4-8.3L909,228.8L923.3,237.1z M922.2,211.2l9.7,5.6l-9.5,16.5l-9.7-5.6
			L922.2,211.2z"/>
	</g>
	
		<rect x="837.9" y="331.1" transform="matrix(0.7071 0.7071 -0.7071 0.7071 491.3997 -491.6499)" class="st2" width="2.6" height="32.5"/>
	<g>
		<rect x="858.7" y="434.2" class="st3" width="9.2" height="17.4"/>
	</g>
	<g>
		
			<rect x="741" y="316.4" transform="matrix(4.448093e-11 -1 1 4.448093e-11 420.399 1070.6746)" class="st3" width="9.2" height="17.4"/>
	</g>
	<g>
		
			<rect x="745" y="346.9" transform="matrix(-0.2588 -0.9659 0.9659 -0.2588 600.0452 1171.6708)" class="st3" width="9.2" height="17.4"/>
	</g>
	<g>
		<rect x="756.7" y="375.3" transform="matrix(-0.5 -0.866 0.866 -0.5 809.3981 1235.356)" class="st3" width="9.2" height="17.4"/>
	</g>
	<g>
		
			<rect x="775.5" y="399.7" transform="matrix(-0.7071 -0.7071 0.7071 -0.7071 1042.8038 1248.7769)" class="st3" width="9.2" height="17.4"/>
	</g>
	<g>
		
			<rect x="799.8" y="418.4" transform="matrix(-0.866 -0.5 0.5 -0.866 1287.5089 1199.2534)" class="st3" width="9.2" height="17.4"/>
	</g>
	<g>
		
			<rect x="828.2" y="430.2" transform="matrix(-0.9659 -0.2588 0.2588 -0.9659 1523.6843 1078.3947)" class="st3" width="9.2" height="17.4"/>
	</g>
</g>
<g>
	<path class="st3" d="M541.4,557c-53.9,0-97.6,43.7-97.6,97.6c0,53.9,43.7,97.6,97.6,97.6s97.6-43.7,97.6-97.6
		C639,600.7,595.3,557,541.4,557z M541.4,739.8c-47.1,0-85.2-38.2-85.2-85.2s38.2-85.2,85.2-85.2s85.2,38.2,85.2,85.2
		S588.5,739.8,541.4,739.8z"/>
	<path class="st3" d="M541.4,618.9c-19.7,0-35.7,16-35.7,35.7s16,35.7,35.7,35.7s35.7-16,35.7-35.7S561.1,618.9,541.4,618.9z
		 M541.4,685.7c-17.2,0-31.2-14-31.2-31.2s14-31.2,31.2-31.2s31.2,14,31.2,31.2S558.6,685.7,541.4,685.7z"/>
	<path class="st1" d="M595.8,663.1c-4.1,26.3-26.9,46.5-54.4,46.5s-50.3-20.2-54.4-46.5h-8c4.2,30.8,30.5,54.5,62.4,54.5
		s58.2-23.7,62.4-54.5H595.8z"/>
	<path class="st2" d="M541.4,538.8c-63.9,0-115.7,51.8-115.7,115.7s51.8,115.7,115.7,115.7s115.7-51.8,115.7-115.7
		S605.3,538.8,541.4,538.8z M541.4,761.9c-59.3,0-107.3-48-107.3-107.3s48-107.3,107.3-107.3s107.3,48,107.3,107.3
		S600.7,761.9,541.4,761.9z"/>
	<g>
		
			<rect x="536.1" y="581.9" transform="matrix(0.9994 -3.435403e-02 3.435403e-02 0.9994 -19.8761 18.8572)" class="st1" width="5.4" height="11.8"/>
		
			<rect x="524.7" y="583.1" transform="matrix(0.9783 -0.2074 0.2074 0.9783 -110.6711 122.1782)" class="st1" width="5.4" height="11.8"/>
		
			<rect x="513.7" y="586.2" transform="matrix(0.9274 -0.3741 0.3741 0.9274 -183.9901 236.1747)" class="st1" width="5.4" height="11.8"/>
		
			<rect x="503.4" y="591.1" transform="matrix(0.8483 -0.5295 0.5295 0.8483 -239.3379 358.4931)" class="st1" width="5.4" height="11.8"/>
		
			<rect x="494.1" y="597.8" transform="matrix(0.7435 -0.6687 0.6687 0.7435 -276.2812 487.0527)" class="st1" width="5.4" height="11.8"/>
		
			<rect x="486.1" y="606" transform="matrix(0.6161 -0.7877 0.7877 0.6161 -294.3109 619.9115)" class="st1" width="5.4" height="11.8"/>
	</g>
	<g>
		<circle class="st1" cx="542.6" cy="528.6" r="4"/>
		<circle class="st1" cx="542.6" cy="781.4" r="4"/>
	</g>
	<g>
		<ellipse transform="matrix(0.9914 -0.1305 0.1305 0.9914 -64.6383 73.1967)" class="st1" cx="526.1" cy="529.7" rx="4" ry="4"/>
		<ellipse transform="matrix(0.9914 -0.1305 0.1305 0.9914 -97.0688 79.6475)" class="st1" cx="559.1" cy="780.3" rx="4" ry="4"/>
	</g>
	<g>
		<ellipse transform="matrix(0.9659 -0.2588 0.2588 0.9659 -120.5569 150.1173)" class="st1" cx="509.8" cy="532.9" rx="4" ry="4"/>
		<ellipse transform="matrix(0.9659 -0.2588 0.2588 0.9659 -181.5238 175.3706)" class="st1" cx="575.3" cy="777.1" rx="4" ry="4"/>
	</g>
	<g>
		<ellipse transform="matrix(0.9239 -0.3827 0.3827 0.9239 -168.3547 230.09)" class="st1" cx="494.2" cy="538.2" rx="4" ry="4"/>
		<ellipse transform="matrix(0.9239 -0.3827 0.3827 0.9239 -250.3641 284.8869)" class="st1" cx="590.9" cy="771.8" rx="4" ry="4"/>
	</g>
	<g>
		<ellipse transform="matrix(0.866 -0.5 0.5 0.866 -208.55 312.7718)" class="st1" cx="479.4" cy="545.5" rx="4" ry="4"/>
		<ellipse transform="matrix(0.866 -0.5 0.5 0.866 -301.0757 405.2975)" class="st1" cx="605.8" cy="764.5" rx="4" ry="4"/>
	</g>
	<g>
		<ellipse transform="matrix(0.7934 -0.6088 0.6088 0.7934 -241.4801 398.0838)" class="st1" cx="465.6" cy="554.7" rx="4" ry="4"/>
		<ellipse transform="matrix(0.7934 -0.6088 0.6088 0.7934 -331.7659 533.2061)" class="st1" cx="619.5" cy="755.3" rx="4" ry="4"/>
	</g>
	<g>
		<ellipse transform="matrix(0.7071 -0.7071 0.7071 0.7071 -267.2261 486.1222)" class="st1" cx="453.2" cy="565.6" rx="4" ry="4"/>
	</g>
	<g>
		<ellipse transform="matrix(0.6088 -0.7934 0.7934 0.6088 -285.5673 577.0503)" class="st1" cx="442.3" cy="578.1" rx="4" ry="4"/>
	</g>
	<g>
		<ellipse transform="matrix(0.5 -0.866 0.866 0.5 -295.9699 670.9817)" class="st1" cx="433.1" cy="591.8" rx="4" ry="4"/>
	</g>
	<g>
		<ellipse transform="matrix(0.3827 -0.9239 0.9239 0.3827 -297.6117 767.8652)" class="st1" cx="425.8" cy="606.6" rx="4" ry="4"/>
	</g>
	<g>
		<ellipse transform="matrix(0.2588 -0.9659 0.9659 0.2588 -289.4392 867.3791)" class="st1" cx="420.5" cy="622.3" rx="4" ry="4"/>
	</g>
	<g>
		<ellipse transform="matrix(0.1305 -0.9914 0.9914 0.1305 -270.2565 968.8457)" class="st1" cx="417.3" cy="638.5" rx="4" ry="4"/>
	</g>
	<g>
		<circle class="st1" cx="416.2" cy="655" r="4"/>
	</g>
	<g>
		<ellipse transform="matrix(0.9914 -0.1305 0.1305 0.9914 -84.079 60.2069)" class="st1" cx="417.3" cy="671.5" rx="4" ry="4"/>
	</g>
	<g>
		<ellipse transform="matrix(0.9659 -0.2588 0.2588 0.9659 -163.667 132.2605)" class="st1" cx="420.5" cy="687.7" rx="4" ry="4"/>
	</g>
	<g>
		<ellipse transform="matrix(0.9239 -0.3827 0.3827 0.9239 -236.7578 216.4838)" class="st1" cx="425.8" cy="703.4" rx="4" ry="4"/>
	</g>
	<g>
		<ellipse transform="matrix(0.866 -0.5 0.5 0.866 -301.0757 312.7718)" class="st1" cx="433.1" cy="718.2" rx="4" ry="4"/>
	</g>
	<g>
		<ellipse transform="matrix(0.7934 -0.6088 0.6088 0.7934 -354.1842 420.502)" class="st1" cx="442.3" cy="731.9" rx="4" ry="4"/>
	</g>
	<g>
		<ellipse transform="matrix(0.7071 -0.7071 0.7071 0.7071 -393.6186 538.4757)" class="st1" cx="453.2" cy="744.4" rx="4" ry="4"/>
	</g>
	<g>
		<ellipse transform="matrix(0.6088 -0.7934 0.7934 0.6088 -417.0348 664.894)" class="st1" cx="465.6" cy="755.3" rx="4" ry="4"/>
	</g>
	<g>
		<ellipse transform="matrix(0.5 -0.866 0.866 0.5 -422.3624 797.3742)" class="st1" cx="479.4" cy="764.5" rx="4" ry="4"/>
	</g>
	<g>
		<ellipse transform="matrix(0.3827 -0.9239 0.9239 0.3827 -407.9545 933.0049)" class="st1" cx="494.2" cy="771.8" rx="4" ry="4"/>
	</g>
	<g>
		
			<ellipse transform="matrix(0.2588 -0.9659 0.9659 0.2588 -372.7216 1068.4404)" class="st1" cx="509.8" cy="777.1" rx="4" ry="4"/>
	</g>
	<g>
		
			<ellipse transform="matrix(0.1305 -0.9914 0.9914 0.1305 -316.2414 1200.0273)" class="st1" cx="526.1" cy="780.3" rx="4" ry="4"/>
	</g>
	<rect x="438.7" y="652.9" class="st3" width="57.1" height="3.4"/>
	<rect x="587" y="652.9" class="st3" width="57.1" height="3.4"/>
</g>
<g>
	<path class="st2" d="M872.3,563.2c-50,0-90.5,40.5-90.5,90.5s40.5,90.5,90.5,90.5s90.5-40.5,90.5-90.5S922.3,563.2,872.3,563.2z
		 M872.3,737.7c-46.4,0-84-37.6-84-84s37.6-84,84-84s84,37.6,84,84S918.6,737.7,872.3,737.7z"/>
	<path class="st2" d="M901,665.8c-4.7,11.2-15.8,19.1-28.7,19.1c-17.2,0-31.2-14-31.2-31.2c0-16.2,12.3-29.5,28.1-31v-20.1
		c-26.8,1.6-48.1,23.9-48.1,51.1c0,28.3,22.9,51.2,51.2,51.2c24.1,0,44.3-16.7,49.8-39.1H901z"/>
	<path class="st3" d="M986.7,640.7c-5.4-48.2-40.5-87.4-86.6-98.9c-9-2.2-18.3-3.4-28-3.4c-61.8,0-112.2,48.6-115.2,109.6l9-6.6
		c0.5-3.9,1.1-7.7,2-11.5c0-0.1,0-0.2,0.1-0.3c10.9-47.4,53.4-82.8,104.2-82.8c59.1,0,106.9,47.9,106.9,106.9c0,2.7-0.1,5.4-0.3,8
		c0,0.1,0,0.2,0,0.2c-4.2,55.2-50.3,98.7-106.6,98.7c-13.3,0-26.1-2.4-37.9-6.9l-7.9,5.8c14,6.1,29.5,9.4,45.8,9.4
		c63.7,0,115.3-51.6,115.3-115.3C987.4,649.3,987.2,645,986.7,640.7z"/>
	<path class="st3" d="M911.3,533.5l-11.2,8.3l-7.9,5.8c-28.3-5.4-58.7,0.6-83.6,19.1c-21.5,16-35.3,38.5-40.7,62.8
		c0,0.1,0,0.2-0.1,0.3c-0.8,3.8-1.4,7.6-1.8,11.4l-0.1,0.1l-9,6.6l-10,7.4c-0.8-39.2,16.7-78.3,50.7-103.5
		C831.5,526.8,874,521.3,911.3,533.5z"/>
	<path class="st3" d="M947,753.3c-38.6,28.6-88.3,31.8-128.8,12.4l8.2-6.1l7.9-5.8l1.1-0.8c32.7,12,70.5,7.8,100.6-14.5
		c25.6-19,40.2-47.1,42.8-76.5c0-0.1,0-0.2,0-0.2c0.4-5.1,0.5-10.2,0.2-15.3l7.7-5.7l9.5-7C1003,678.1,985.6,724.7,947,753.3z"/>
	<g>
		<g>
			<polygon class="st3" points="804.9,668 811.9,661 810.7,659.7 802.3,668.2 810.7,676.6 812.1,675.2 			"/>
			<polygon class="st3" points="887.2,585.7 880.2,592.7 879,591.4 887.4,583 895.9,591.4 894.4,592.9 			"/>
		</g>
		<g>
			<polygon class="st3" points="939.7,638.1 932.7,645.1 933.9,646.3 942.3,637.9 933.9,629.4 932.4,630.9 			"/>
			<polygon class="st3" points="857.4,720.4 864.4,713.4 865.6,714.6 857.1,723.1 848.7,714.6 850.1,713.2 			"/>
		</g>
	</g>
	<g>
		
			<rect x="752.9" y="667.6" transform="matrix(-0.1994 -0.9799 0.9799 -0.1994 245.6301 1552.6294)" class="st1" width="8.4" height="16.7"/>
	</g>
	<g>
		
			<rect x="756.6" y="681.3" transform="matrix(-0.3173 -0.9483 0.9483 -0.3173 348.1436 1629.9027)" class="st1" width="8.4" height="16.7"/>
	</g>
	<g>
		
			<rect x="761.9" y="694.4" transform="matrix(-0.4305 -0.9026 0.9026 -0.4305 461.55 1696.7292)" class="st1" width="8.4" height="16.7"/>
	</g>
	<g>
		
			<rect x="768.7" y="706.8" transform="matrix(-0.5373 -0.8434 0.8434 -0.5373 585.0627 1751.2396)" class="st1" width="8.4" height="16.7"/>
	</g>
	<g>
		
			<rect x="777.1" y="718.2" transform="matrix(-0.6361 -0.7716 0.7716 -0.6361 717.5068 1791.5552)" class="st1" width="8.4" height="16.7"/>
	</g>
	<g>
		
			<rect x="786.7" y="728.6" transform="matrix(-0.7254 -0.6884 0.6884 -0.7254 857.296 1815.8795)" class="st1" width="8.4" height="16.7"/>
	</g>
	<g>
		
			<rect x="797.5" y="737.7" transform="matrix(-0.8039 -0.5948 0.5948 -0.8039 1002.4341 1822.5961)" class="st1" width="8.4" height="16.7"/>
	</g>
</g>
<g>
	<path class="st2" d="M1193.7,553.8c-55.6,0-100.8,45.1-100.8,100.8c0,55.6,45.1,100.8,100.8,100.8c55.6,0,100.8-45.1,100.8-100.8
		C1294.5,598.9,1249.4,553.8,1193.7,553.8z M1193.7,745.3c-50.2,0-90.8-40.7-90.8-90.8s40.7-90.8,90.8-90.8
		c50.2,0,90.8,40.7,90.8,90.8S1243.9,745.3,1193.7,745.3z"/>
	<path class="st1" d="M1223.6,657.6c-1.6,15.1-14.4,26.9-29.9,26.9c-15.6,0-28.3-11.8-29.9-26.9h-13.2c1.6,22.4,20.3,40.1,43.1,40.1
		s41.5-17.7,43.1-40.1H1223.6z"/>
	<circle class="st2" cx="1193.7" cy="635.1" r="20.7"/>
	<path class="st1" d="M1193.7,538.7c-64,0-115.8,51.9-115.8,115.8s51.9,115.8,115.8,115.8c64,0,115.8-51.9,115.8-115.8
		S1257.7,538.7,1193.7,538.7z M1193.7,766.1c-61.6,0-111.6-50-111.6-111.6s50-111.6,111.6-111.6s111.6,50,111.6,111.6
		S1255.4,766.1,1193.7,766.1z"/>
	<g>
		<circle class="st3" cx="1193.7" cy="530.4" r="3.1"/>
		<circle class="st3" cx="1193.7" cy="778.6" r="3.1"/>
	</g>
	<g>
		
			<ellipse transform="matrix(0.9914 -0.1305 0.1305 0.9914 -59.2998 158.2469)" class="st3" cx="1177.5" cy="531.5" rx="3.1" ry="3.1"/>
		
			<ellipse transform="matrix(0.9914 -0.1305 0.1305 0.9914 -91.1369 164.5797)" class="st3" cx="1209.9" cy="777.5" rx="3.1" ry="3.1"/>
	</g>
	<g>
		
			<ellipse transform="matrix(0.9659 -0.2588 0.2588 0.9659 -98.7988 318.868)" class="st3" cx="1161.6" cy="534.7" rx="3.1" ry="3.1"/>
		
			<ellipse transform="matrix(0.9659 -0.2588 0.2588 0.9659 -158.6502 343.6593)" class="st3" cx="1225.9" cy="774.4" rx="3.1" ry="3.1"/>
	</g>
	<g>
		
			<ellipse transform="matrix(0.9239 -0.3827 0.3827 0.9239 -119.3486 479.7478)" class="st3" cx="1146.3" cy="539.9" rx="3.1" ry="3.1"/>
		
			<ellipse transform="matrix(0.9239 -0.3827 0.3827 0.9239 -199.8574 533.542)" class="st0" cx="1241.2" cy="769.1" rx="3.1" ry="3.1"/>
	</g>
	<g>
		<ellipse transform="matrix(0.866 -0.5 0.5 0.866 -121.9091 639.1398)" class="st3" cx="1131.7" cy="547.1" rx="3.1" ry="3.1"/>
		<ellipse transform="matrix(0.866 -0.5 0.5 0.866 -212.7418 729.9725)" class="st3" cx="1255.8" cy="762" rx="3.1" ry="3.1"/>
	</g>
	<g>
		
			<ellipse transform="matrix(0.7934 -0.6088 0.6088 0.7934 -107.4429 795.6284)" class="st3" cx="1118.2" cy="556.1" rx="3.1" ry="3.1"/>
		
			<ellipse transform="matrix(0.7934 -0.6088 0.6088 0.7934 -196.0767 928.2782)" class="st3" cx="1269.3" cy="753" rx="3.1" ry="3.1"/>
	</g>
	<g>
		
			<ellipse transform="matrix(0.7071 -0.7071 0.7071 0.7071 -76.8302 948.0635)" class="st3" cx="1106" cy="566.8" rx="3.1" ry="3.1"/>
		
			<ellipse transform="matrix(0.7071 -0.7071 0.7071 0.7071 -149.5144 1123.5388)" class="st3" cx="1281.5" cy="742.2" rx="3.1" ry="3.1"/>
	</g>
	<g>
		
			<ellipse transform="matrix(0.6088 -0.7934 0.7934 0.6088 -30.8105 1095.4757)" class="st3" cx="1095.3" cy="579" rx="3.1" ry="3.1"/>
		
			<ellipse transform="matrix(0.6088 -0.7934 0.7934 0.6088 -73.636 1310.7742)" class="st3" cx="1292.2" cy="730" rx="3.1" ry="3.1"/>
	</g>
	<g>
		<ellipse transform="matrix(0.5 -0.866 0.866 0.5 30.0445 1236.9821)" class="st3" cx="1086.3" cy="592.5" rx="3.1" ry="3.1"/>
		<ellipse transform="matrix(0.5 -0.866 0.866 0.5 30.0445 1485.1416)" class="st3" cx="1301.2" cy="716.6" rx="3.1" ry="3.1"/>
	</g>
	<g>
		
			<ellipse transform="matrix(0.3827 -0.9239 0.9239 0.3827 105.3262 1371.6886)" class="st3" cx="1079.1" cy="607" rx="3.1" ry="3.1"/>
		
			<ellipse transform="matrix(0.3827 -0.9239 0.9239 0.3827 159.1205 1642.1305)" class="st3" cx="1308.4" cy="702" rx="3.1" ry="3.1"/>
	</g>
	<g>
		
			<ellipse transform="matrix(0.2588 -0.9659 0.9659 0.2588 194.753 1498.6019)" class="st3" cx="1073.9" cy="622.4" rx="3.1" ry="3.1"/>
		
			<ellipse transform="matrix(0.2588 -0.9659 0.9659 0.2588 310.377 1777.7428)" class="st3" cx="1313.6" cy="686.6" rx="3.1" ry="3.1"/>
	</g>
	<g>
		
			<ellipse transform="matrix(0.1305 -0.9914 0.9914 0.1305 298.1063 1616.557)" class="st3" cx="1070.7" cy="638.3" rx="3.1" ry="3.1"/>
		
			<ellipse transform="matrix(0.1305 -0.9914 0.9914 0.1305 479.9144 1888.6521)" class="st3" cx="1316.8" cy="670.7" rx="3.1" ry="3.1"/>
	</g>
	<g>
		<circle class="st3" cx="1069.7" cy="654.5" r="3.1"/>
		<circle class="st3" cx="1317.8" cy="654.5" r="3.1"/>
	</g>
	<g>
		
			<ellipse transform="matrix(0.9914 -0.1305 0.1305 0.9914 -78.3847 145.4948)" class="st3" cx="1070.7" cy="670.7" rx="3.1" ry="3.1"/>
		
			<ellipse transform="matrix(0.9914 -0.1305 0.1305 0.9914 -72.0519 177.3318)" class="st3" cx="1316.8" cy="638.3" rx="3.1" ry="3.1"/>
	</g>
	<g>
		
			<ellipse transform="matrix(0.9659 -0.2588 0.2588 0.9659 -141.1201 301.338)" class="st3" cx="1073.9" cy="686.6" rx="3.1" ry="3.1"/>
		
			<ellipse transform="matrix(0.9659 -0.2588 0.2588 0.9659 -116.3289 361.1893)" class="st3" cx="1313.6" cy="622.4" rx="3.1" ry="3.1"/>
	</g>
	<g>
		
			<ellipse transform="matrix(0.9239 -0.3827 0.3827 0.9239 -186.5001 466.3905)" class="st3" cx="1079.1" cy="702" rx="3.1" ry="3.1"/>
		
			<ellipse transform="matrix(0.9239 -0.3827 0.3827 0.9239 -132.7059 546.8992)" class="st3" cx="1308.4" cy="607" rx="3.1" ry="3.1"/>
	</g>
	<g>
		<ellipse transform="matrix(0.866 -0.5 0.5 0.866 -212.7418 639.1398)" class="st3" cx="1086.3" cy="716.6" rx="3.1" ry="3.1"/>
		<ellipse transform="matrix(0.866 -0.5 0.5 0.866 -121.9091 729.9725)" class="st3" cx="1301.2" cy="592.5" rx="3.1" ry="3.1"/>
	</g>
	<g>
		
			<ellipse transform="matrix(0.7934 -0.6088 0.6088 0.7934 -218.0847 817.6364)" class="st3" cx="1095.3" cy="730" rx="3.1" ry="3.1"/>
		
			<ellipse transform="matrix(0.7934 -0.6088 0.6088 0.7934 -85.4349 906.2702)" class="st3" cx="1292.2" cy="579" rx="3.1" ry="3.1"/>
	</g>
	<g>
		<ellipse transform="matrix(0.7071 -0.7071 0.7071 0.7071 -200.91 999.459)" class="st3" cx="1106" cy="742.2" rx="3.1" ry="3.1"/>
		
			<ellipse transform="matrix(0.7071 -0.7071 0.7071 0.7071 -25.4347 1072.1433)" class="st3" cx="1281.5" cy="566.8" rx="3.1" ry="3.1"/>
	</g>
	<g>
		
			<ellipse transform="matrix(0.6088 -0.7934 0.7934 0.6088 -159.8725 1181.7122)" class="st3" cx="1118.2" cy="753" rx="3.1" ry="3.1"/>
		
			<ellipse transform="matrix(0.6088 -0.7934 0.7934 0.6088 55.4259 1224.5377)" class="st3" cx="1269.3" cy="556.1" rx="3.1" ry="3.1"/>
	</g>
	<g>
		<ellipse transform="matrix(0.5 -0.866 0.866 0.5 -94.0353 1361.0619)" class="st3" cx="1131.7" cy="762" rx="3.1" ry="3.1"/>
		<ellipse transform="matrix(0.5 -0.866 0.866 0.5 154.1243 1361.0619)" class="st3" cx="1255.8" cy="547.1" rx="3.1" ry="3.1"/>
	</g>
	<g>
		
			<ellipse transform="matrix(0.3827 -0.9239 0.9239 0.3827 -2.9976 1533.8066)" class="st3" cx="1146.3" cy="769.1" rx="3.1" ry="3.1"/>
		
			<ellipse transform="matrix(0.3827 -0.9239 0.9239 0.3827 267.4443 1480.0123)" class="st3" cx="1241.2" cy="539.9" rx="3.1" ry="3.1"/>
	</g>
	<g>
		
			<ellipse transform="matrix(0.2588 -0.9659 0.9659 0.2588 112.9945 1695.9844)" class="st3" cx="1161.6" cy="774.4" rx="3.1" ry="3.1"/>
		
			<ellipse transform="matrix(0.2588 -0.9659 0.9659 0.2588 392.1355 1580.3604)" class="st3" cx="1225.9" cy="534.7" rx="3.1" ry="3.1"/>
	</g>
	<g>
		
			<ellipse transform="matrix(0.1305 -0.9914 0.9914 0.1305 252.9628 1843.5085)" class="st3" cx="1177.5" cy="777.5" rx="3.1" ry="3.1"/>
		
			<ellipse transform="matrix(0.1305 -0.9914 0.9914 0.1305 525.0579 1661.7004)" class="st3" cx="1209.9" cy="531.5" rx="3.1" ry="3.1"/>
	</g>
	<g>
		<path class="st3" d="M1180.3,591.7c3.3-0.7,6.7-1.2,10.1-1.3v-16.2c-4.9,0.2-9.7,0.8-14.3,1.9L1180.3,591.7z"/>
		<path class="st3" d="M1150.7,606.8c2.5-2.3,5.2-4.4,8.1-6.2l-8.1-14c-4.1,2.6-7.9,5.5-11.5,8.8L1150.7,606.8z"/>
		<path class="st3" d="M1164.5,597.3c3-1.5,6.2-2.9,9.5-3.9l-4.2-15.7c-4.6,1.5-9.1,3.3-13.4,5.5L1164.5,597.3z"/>
		<path class="st3" d="M1139.8,619.6c1.9-2.9,3.9-5.6,6.2-8.1l-11.5-11.5c-3.3,3.5-6.2,7.4-8.8,11.5L1139.8,619.6z"/>
		<path class="st3" d="M1129.6,651.2c0.2-3.5,0.6-6.9,1.3-10.1l-15.7-4.2c-1,4.6-1.7,9.4-1.9,14.3H1129.6z"/>
		<path class="st3" d="M1132.6,634.7c1.1-3.3,2.4-6.4,3.9-9.5l-14-8.1c-2.2,4.2-4.1,8.7-5.5,13.4L1132.6,634.7z"/>
		<path class="st3" d="M1265,617.2l-14,8.1c1.5,3,2.9,6.2,3.9,9.5l15.7-4.2C1269.1,625.9,1267.2,621.4,1265,617.2z"/>
		<path class="st3" d="M1241.4,611.5c2.3,2.5,4.4,5.2,6.2,8.1l14-8.1c-2.6-4.1-5.5-7.9-8.8-11.5L1241.4,611.5z"/>
		<path class="st3" d="M1213.5,593.4c3.3,1.1,6.4,2.4,9.5,3.9l8.1-14c-4.2-2.2-8.7-4.1-13.4-5.5L1213.5,593.4z"/>
		<path class="st3" d="M1228.7,600.6c2.9,1.9,5.6,3.9,8.1,6.2l11.5-11.5c-3.5-3.3-7.4-6.2-11.5-8.8L1228.7,600.6z"/>
		<path class="st3" d="M1197,590.3c3.5,0.2,6.9,0.6,10.1,1.3l4.2-15.7c-4.6-1-9.4-1.7-14.3-1.9V590.3z"/>
		<path class="st3" d="M1130.9,667.9c-0.7-3.3-1.2-6.7-1.3-10.1h-16.2c0.2,4.9,0.8,9.7,1.9,14.3L1130.9,667.9z"/>
		<path class="st3" d="M1136.5,683.8c-1.5-3-2.9-6.2-3.9-9.5l-15.7,4.2c1.5,4.6,3.3,9.1,5.5,13.4L1136.5,683.8z"/>
		<path class="st3" d="M1236.8,702.2c-2.5,2.3-5.2,4.4-8.1,6.2l8.1,14c4.1-2.6,7.9-5.5,11.5-8.8L1236.8,702.2z"/>
		<path class="st3" d="M1254.9,674.3c-1.1,3.3-2.4,6.4-3.9,9.5l14,8.1c2.2-4.2,4.1-8.7,5.5-13.4L1254.9,674.3z"/>
		<path class="st3" d="M1223,711.7c-3,1.5-6.2,2.9-9.5,3.9l4.2,15.7c4.6-1.5,9.1-3.3,13.4-5.5L1223,711.7z"/>
		<path class="st3" d="M1256.6,641.1c0.7,3.3,1.2,6.7,1.3,10.1h16.2c-0.2-4.9-0.8-9.7-1.9-14.3L1256.6,641.1z"/>
		<path class="st3" d="M1257.9,657.8c-0.2,3.5-0.6,6.9-1.3,10.1l15.7,4.2c1-4.6,1.7-9.4,1.9-14.3H1257.9z"/>
		<path class="st3" d="M1247.7,689.5c-1.9,2.9-3.9,5.6-6.2,8.1l11.5,11.5c3.3-3.5,6.2-7.4,8.8-11.5L1247.7,689.5z"/>
		<path class="st3" d="M1158.8,708.5c-2.9-1.9-5.6-3.9-8.1-6.2l-11.5,11.5c3.5,3.3,7.4,6.2,11.5,8.8L1158.8,708.5z"/>
		<path class="st3" d="M1146,697.6c-2.3-2.5-4.4-5.2-6.2-8.1l-14,8.1c2.6,4.1,5.5,7.9,8.8,11.5L1146,697.6z"/>
		<path class="st3" d="M1190.4,718.7c-3.5-0.2-6.9-0.6-10.1-1.3l-4.2,15.7c4.6,1,9.4,1.7,14.3,1.9V718.7z"/>
		<path class="st3" d="M1173.9,715.7c-3.3-1.1-6.4-2.4-9.5-3.9l-8.1,14c4.2,2.2,8.7,4.1,13.4,5.5L1173.9,715.7z"/>
		<path class="st3" d="M1207.2,717.4c-3.3,0.7-6.7,1.2-10.1,1.3v16.2c4.9-0.2,9.7-0.8,14.3-1.9L1207.2,717.4z"/>
	</g>
</g>
</svg>
